<svg width="330" height="220" fill="none" xmlns="http://www.w3.org/2000/svg"><path d="M222.458 71H97.542C92.272 71 88 75.282 88 80.565v100.87c0 5.283 4.272 9.565 9.542 9.565h124.916c5.27 0 9.542-4.282 9.542-9.565V80.565c0-5.282-4.272-9.565-9.542-9.565z" fill="#fff" stroke="#212121"/><path d="M88 155h144M88 173h144m-126-18v36m18-36v36m18-36v36m18-36v36m18-36v36m18-36v36m18-36v36" stroke="#212121"/><path d="M196 177a4 4 0 1 0 0-8 4 4 0 0 0 0 8z" fill="#3FC4FF" stroke="#212121"/><path d="M160 177a4 4 0 1 0 0-8 4 4 0 0 0 0 8z" fill="#2979FF" stroke="#212121"/><path fill-rule="evenodd" clip-rule="evenodd" d="M97.54 71H222.46c2.528-.002 4.953.865 6.742 2.41 1.789 1.544 2.795 3.64 2.797 5.825V91H88V79.235c0-1.082.248-2.153.728-3.153s1.183-1.908 2.069-2.672a9.752 9.752 0 0 1 3.094-1.785A10.844 10.844 0 0 1 97.539 71z" fill="#F5F5F5" stroke="#212121"/><path d="M108 84a3 3 0 1 0 0-6 3 3 0 0 0 0 6z" fill="#2979FF"/><path d="M97 84a3 3 0 1 0 0-6 3 3 0 0 0 0 6z" fill="#3740FF"/><path d="M119 84a3 3 0 1 0 0-6 3 3 0 0 0 0 6z" fill="#3FC4FF"/><path d="M112 121.25h14.711L133.87 109l6.763 28 8.677-14 8.123 14 7.568-28 10.734 28 11.412-28 6.731 12.25H208" stroke="#3FC4FF" stroke-width="6" stroke-linecap="round" stroke-linejoin="round"/><path d="M160 59c12.15 0 22-9.85 22-22s-9.85-22-22-22-22 9.85-22 22 9.85 22 22 22z" fill="#fff" stroke="#212121" stroke-width="1.275"/><path fill-rule="evenodd" clip-rule="evenodd" d="M148 27.5a2.5 2.5 0 0 1 2.5-2.5h19a2.5 2.5 0 1 1 0 5h-19a2.5 2.5 0 0 1-2.5-2.5zm0 9.5a2.5 2.5 0 0 1 2.5-2.5h19a2.5 2.5 0 1 1 0 5h-19A2.5 2.5 0 0 1 148 37zm2.5 7a2.5 2.5 0 1 0 0 5h19a2.5 2.5 0 1 0 0-5h-19z" fill="#DADCE0"/><path d="M148 27.5a2.5 2.5 0 0 1 2.5-2.5H164v5h-13.5a2.5 2.5 0 0 1-2.5-2.5z" fill="#0CCE6B"/><path d="M148 37a2.5 2.5 0 0 1 2.5-2.5h9.5v5h-9.5A2.5 2.5 0 0 1 148 37z" fill="#FFA400"/><path d="M148 46.5a2.5 2.5 0 0 1 2.5-2.5h5.5v5h-5.5a2.5 2.5 0 0 1-2.5-2.5z" fill="#FF4E42"/><path d="M160 71V59M232 123h16" stroke="#212121" stroke-width="1.275" stroke-dasharray="3.19 3.19"/><path d="M270 145c12.15 0 22-9.85 22-22s-9.85-22-22-22-22 9.85-22 22 9.85 22 22 22z" fill="#fff" stroke="#212121" stroke-width="1.275"/><path d="M270 127a4 4 0 1 0 0-8 4 4 0 0 0 0 8z" fill="#FF4E42"/><path d="M248 123h5.5m16.5-22v5.5m22 16.5h-5.5m-32.083-15.583 3.666 3.666m27.5-3.666-3.666 3.666" stroke="#212121"/><path d="m270 123 15-7" stroke="#FF4E42"/><path d="M80 205c17.673 0 32-14.327 32-32 0-17.673-14.327-32-32-32-17.673 0-32 14.327-32 32 0 17.673 14.327 32 32 32z" fill="#fff" stroke="#212121" stroke-width="1.275"/><path d="m61 172.523 10.795-7.52 6.81 4.8L93 160.523" stroke="#212121" stroke-width="1.275" stroke-linecap="round" stroke-linejoin="round"/><path fill-rule="evenodd" clip-rule="evenodd" d="m97.023 158.179-4.16 7.038-3.998-6.522 8.158-.516z" fill="#212121"/><path d="M79 177h4v12h-4v-12z" fill="#3FC4FF"/><path fill="#2979FF" d="M85 173h4v16h-4z"/><path fill="#3740FF" d="M91 169h4v20h-4z"/><circle cx="69" cy="183" r="6" fill="#DADCE0"/><path d="M69 189a6 6 0 1 1 0-12v12z" fill="#0CCE6B"/><path d="M69 177a5.998 5.998 0 0 1 4.854 2.473L69 183v-6z" fill="#018642"/></svg>